<svg width="30" height="31" viewBox="0 0 30 31" fill="none" xmlns="http://www.w3.org/2000/svg">
<g clip-path="url(#clip0_519_20)">
<path fill-rule="evenodd" clip-rule="evenodd" d="M15 0.951172C6.71625 0.951172 0 7.66742 0 15.9512C0 24.2349 6.71625 30.9512 15 30.9512C23.2838 30.9512 30 24.2349 30 15.9512C30 7.66742 23.2838 0.951172 15 0.951172ZM21.9525 11.1524C21.7275 13.5237 20.75 19.2799 20.2537 21.9362C20.0437 23.0612 19.6287 23.4374 19.2288 23.4737C18.3575 23.5537 17.6963 22.8974 16.8525 22.3449C15.5325 21.4799 14.7863 20.9412 13.505 20.0962C12.0238 19.1199 12.9838 18.5837 13.8275 17.7074C14.0487 17.4774 17.8863 13.9862 17.9613 13.6699C17.97 13.6299 17.98 13.4824 17.8913 13.4049C17.8025 13.3274 17.6737 13.3537 17.5812 13.3749C17.4487 13.4049 15.34 14.7987 11.2537 17.5562C10.655 17.9674 10.1125 18.1674 9.62625 18.1574C9.09125 18.1462 8.06125 17.8549 7.295 17.6049C6.35625 17.2999 5.60875 17.1374 5.67375 16.6199C5.7075 16.3499 6.07875 16.0737 6.78875 15.7912C11.1613 13.8862 14.0775 12.6299 15.5363 12.0224C19.7025 10.2899 20.5675 9.98867 21.1325 9.97867C21.84 9.96867 22.01 10.5524 21.9525 11.1524Z" fill="#05357F"/>
</g>
<defs>
<clipPath id="clip0_519_20">
<rect width="30" height="30" fill="white" transform="translate(0 0.951172)"/>
</clipPath>
</defs>
</svg>
