<svg width="30" height="32" viewBox="0 0 30 32" fill="none" xmlns="http://www.w3.org/2000/svg">
<path fill-rule="evenodd" clip-rule="evenodd" d="M25.6303 5.33216C22.8093 2.50863 19.0588 0.952428 15.0634 0.951172C6.83023 0.951172 0.12937 7.65077 0.125602 15.8877C0.124346 18.5204 0.812644 21.0902 2.12016 23.356L0 31.0956L7.91794 29.0182C10.0996 30.2089 12.5564 30.8356 15.0559 30.8369H15.0622C23.2941 30.8369 29.9962 24.136 30 15.899C30.0025 11.9087 28.4501 8.15444 25.6303 5.33216ZM15.0634 28.3135H15.0584C12.8302 28.3135 10.646 27.7144 8.73938 26.5827L8.28595 26.3139L3.58719 27.5461L4.84195 22.9641L4.54679 22.4944C3.30333 20.5174 2.64769 18.2327 2.64894 15.8877C2.65145 9.04244 8.2219 3.47326 15.0697 3.47326C18.3856 3.47326 21.503 4.76696 23.8468 7.1132C26.1905 9.4607 27.4804 12.5794 27.4792 15.8965C27.4754 22.7443 21.9062 28.3135 15.0634 28.3135ZM21.8736 19.0152C21.5005 18.8281 19.6655 17.925 19.3226 17.8007C18.9809 17.6763 18.7323 17.6135 18.4823 17.9865C18.2324 18.3596 17.5189 19.2011 17.3004 19.4511C17.0831 19.6998 16.8646 19.7312 16.4915 19.544C16.1185 19.3569 14.9152 18.9637 13.4896 17.6914C12.3806 16.7016 11.6307 15.4795 11.4134 15.1052C11.1961 14.7309 11.3908 14.53 11.5767 14.3441C11.745 14.177 11.9498 13.9083 12.1369 13.6897C12.3253 13.4737 12.3869 13.3179 12.5125 13.068C12.6368 12.8193 12.5753 12.6007 12.4811 12.4136C12.3869 12.2277 11.6408 10.3901 11.3305 9.64282C11.0278 8.91433 10.7201 9.01355 10.4903 9.00225C10.273 8.99094 10.0243 8.98969 9.77433 8.98969C9.52564 8.98969 9.1212 9.08263 8.77957 9.45693C8.43793 9.83122 7.47331 10.7343 7.47331 12.5706C7.47331 14.4082 8.81097 16.1829 8.99686 16.4316C9.18275 16.6803 11.6282 20.4509 15.3724 22.0674C16.2629 22.4517 16.9588 22.6815 17.5001 22.8536C18.3944 23.1375 19.2083 23.0973 19.8514 23.0018C20.5686 22.8951 22.0595 22.0988 22.3709 21.2271C22.6824 20.3554 22.6824 19.6068 22.5882 19.4523C22.4953 19.2953 22.2466 19.2024 21.8736 19.0152Z" fill="#05357F"/>
</svg>
